<svg id="visual" viewBox="0 0 960 540" width="960" height="540" xmlns="http://www.w3.org/2000/svg" xmlns:xlink="http://www.w3.org/1999/xlink" version="1.1"><rect width="960" height="540" fill="#590FB7"></rect><g><g transform="translate(311 297)"><path d="M63.3 -61.5C77.3 -49.3 80.7 -24.6 80.2 -0.6C79.6 23.5 75 47 61 59.5C47 72 23.5 73.5 3.2 70.3C-17 67.1 -34.1 59.1 -46.2 46.6C-58.4 34.1 -65.7 17 -68.4 -2.7C-71 -22.4 -69.1 -44.7 -56.9 -57C-44.7 -69.2 -22.4 -71.3 1.1 -72.4C24.6 -73.6 49.3 -73.7 63.3 -61.5Z" fill="#30BE96"></path></g><g transform="translate(55 368)"><path d="M49.4 -43.6C66.7 -32.1 85.2 -16 89.5 4.3C93.8 24.6 83.7 49.1 66.4 64.8C49.1 80.4 24.6 87.1 2.5 84.6C-19.6 82.1 -39.2 70.5 -51.5 54.8C-63.9 39.2 -69 19.6 -69.4 -0.5C-69.9 -20.5 -65.7 -41 -53.4 -52.6C-41 -64.2 -20.5 -66.8 -2.2 -64.5C16 -62.3 32.1 -55.2 49.4 -43.6Z" fill="#30BE96"></path></g><g transform="translate(726 485)"><path d="M30.6 -31.4C40.6 -20.6 50.3 -10.3 52.4 2.1C54.5 14.6 49.1 29.1 39.1 36.5C29.1 43.9 14.6 44.2 -0.6 44.8C-15.8 45.5 -31.6 46.5 -42.4 39.1C-53.1 31.6 -58.7 15.8 -57.2 1.5C-55.8 -12.9 -47.2 -25.7 -36.5 -36.5C-25.7 -47.3 -12.9 -56 -1.3 -54.7C10.3 -53.4 20.6 -42.2 30.6 -31.4Z" fill="#30BE96"></path></g><g transform="translate(790 23)"><path d="M35.4 -33.6C47.9 -22.9 61.5 -11.5 64.4 2.9C67.3 17.3 59.5 34.5 47 45.7C34.5 57 17.3 62.2 1.5 60.6C-14.2 59.1 -28.3 50.8 -36.5 39.6C-44.8 28.3 -47 14.2 -46.3 0.8C-45.5 -12.6 -41.7 -25.3 -33.5 -35.9C-25.3 -46.6 -12.6 -55.2 -0.6 -54.6C11.5 -54.1 22.9 -44.2 35.4 -33.6Z" fill="#30BE96"></path></g><g transform="translate(680 214)"><path d="M37.7 -34.7C48.5 -27 56.4 -13.5 56.9 0.5C57.4 14.4 50.3 28.9 39.6 39.1C28.9 49.2 14.4 55.2 1.8 53.4C-10.9 51.6 -21.8 42.2 -31.5 32C-41.1 21.8 -49.4 10.9 -51.5 -2.1C-53.6 -15 -49.3 -30.1 -39.7 -37.7C-30.1 -45.4 -15 -45.7 -0.8 -44.9C13.5 -44.2 27 -42.3 37.7 -34.7Z" fill="#30BE96"></path></g><g transform="translate(59 26)"><path d="M45.9 -41.1C60.8 -30.9 75.4 -15.4 77.8 2.4C80.3 20.3 70.6 40.7 55.6 52.7C40.7 64.8 20.3 68.6 2.3 66.4C-15.8 64.1 -31.6 55.7 -46 43.7C-60.4 31.6 -73.4 15.8 -73.2 0.2C-73 -15.4 -59.7 -30.9 -45.3 -41.1C-30.9 -51.3 -15.4 -56.2 0 -56.2C15.4 -56.2 30.9 -51.3 45.9 -41.1Z" fill="#30BE96"></path></g><g transform="translate(940 215)"><path d="M51.5 -49.3C68.2 -34.9 84.2 -17.4 86.6 2.4C89.1 22.3 77.9 44.5 61.2 56.1C44.5 67.6 22.3 68.4 1.4 67C-19.5 65.6 -38.9 62 -54 50.5C-69.1 38.9 -79.9 19.5 -79.5 0.4C-79 -18.6 -67.4 -37.2 -52.3 -51.7C-37.2 -66.1 -18.6 -76.5 -0.6 -75.9C17.4 -75.3 34.9 -63.8 51.5 -49.3Z" fill="#30BE96"></path></g><g transform="translate(441 109)"><path d="M39.7 -43.8C48.6 -30.8 50.9 -15.4 49.9 -1C48.9 13.4 44.6 26.8 35.7 35.6C26.8 44.4 13.4 48.5 -2.1 50.6C-17.6 52.7 -35.2 52.7 -45.2 43.9C-55.2 35.2 -57.6 17.6 -56.1 1.5C-54.6 -14.6 -49.2 -29.2 -39.2 -42.1C-29.2 -55.1 -14.6 -66.4 0.4 -66.8C15.4 -67.2 30.8 -56.7 39.7 -43.8Z" fill="#30BE96"></path></g><g transform="translate(306 516)"><path d="M38 -36.3C47.8 -28.2 53.3 -14.1 52.7 -0.7C52 12.8 45.1 25.5 35.3 35.2C25.5 44.9 12.8 51.5 0.2 51.2C-12.3 51 -24.5 43.9 -34.5 34.2C-44.4 24.5 -52 12.3 -54.1 -2.1C-56.2 -16.5 -52.9 -33.1 -43 -41.2C-33.1 -49.3 -16.5 -49 -1.2 -47.8C14.1 -46.5 28.2 -44.4 38 -36.3Z" fill="#30BE96"></path></g><g transform="translate(937 519)"><path d="M38 -36.1C48.7 -27.3 56.4 -13.6 55.9 -0.5C55.4 12.6 46.5 25.1 35.8 33.9C25.1 42.7 12.6 47.6 -2 49.6C-16.6 51.7 -33.2 50.8 -44 42C-54.7 33.2 -59.5 16.6 -58.5 1C-57.4 -14.6 -50.6 -29.1 -39.9 -37.9C-29.1 -46.8 -14.6 -49.8 -0.5 -49.3C13.6 -48.9 27.3 -44.9 38 -36.1Z" fill="#30BE96"></path></g></g></svg>