<svg id="visual" viewBox="0 0 675 900" width="675" height="900" xmlns="http://www.w3.org/2000/svg" xmlns:xlink="http://www.w3.org/1999/xlink" version="1.1"><rect x="0" y="0" width="675" height="900" fill="#30BE96"></rect><path d="M0 457L28.2 454.3C56.3 451.7 112.7 446.3 169 447.3C225.3 448.3 281.7 455.7 337.8 467.3C394 479 450 495 506.2 495.3C562.3 495.7 618.7 480.3 646.8 472.7L675 465L675 0L646.8 0C618.7 0 562.3 0 506.2 0C450 0 394 0 337.8 0C281.7 0 225.3 0 169 0C112.7 0 56.3 0 28.2 0L0 0Z" fill="#30be96"></path><path d="M0 391L28.2 388.3C56.3 385.7 112.7 380.3 169 387C225.3 393.7 281.7 412.3 337.8 418.3C394 424.3 450 417.7 506.2 414.7C562.3 411.7 618.7 412.3 646.8 412.7L675 413L675 0L646.8 0C618.7 0 562.3 0 506.2 0C450 0 394 0 337.8 0C281.7 0 225.3 0 169 0C112.7 0 56.3 0 28.2 0L0 0Z" fill="#00b3bc"></path><path d="M0 343L28.2 346.7C56.3 350.3 112.7 357.7 169 352.2C225.3 346.7 281.7 328.3 337.8 320.7C394 313 450 316 506.2 323.2C562.3 330.3 618.7 341.7 646.8 347.3L675 353L675 0L646.8 0C618.7 0 562.3 0 506.2 0C450 0 394 0 337.8 0C281.7 0 225.3 0 169 0C112.7 0 56.3 0 28.2 0L0 0Z" fill="#00a2d8"></path><path d="M0 261L28.2 259.2C56.3 257.3 112.7 253.7 169 258C225.3 262.3 281.7 274.7 337.8 279.5C394 284.3 450 281.7 506.2 276.2C562.3 270.7 618.7 262.3 646.8 258.2L675 254L675 0L646.8 0C618.7 0 562.3 0 506.2 0C450 0 394 0 337.8 0C281.7 0 225.3 0 169 0C112.7 0 56.3 0 28.2 0L0 0Z" fill="#008add"></path><path d="M0 213L28.2 215.2C56.3 217.3 112.7 221.7 169 218.8C225.3 216 281.7 206 337.8 204.3C394 202.7 450 209.3 506.2 213.2C562.3 217 618.7 218 646.8 218.5L675 219L675 0L646.8 0C618.7 0 562.3 0 506.2 0C450 0 394 0 337.8 0C281.7 0 225.3 0 169 0C112.7 0 56.3 0 28.2 0L0 0Z" fill="#006ddb"></path><path d="M0 165L28.2 158.7C56.3 152.3 112.7 139.7 169 140.7C225.3 141.7 281.7 156.3 337.8 159C394 161.7 450 152.3 506.2 145.2C562.3 138 618.7 133 646.8 130.5L675 128L675 0L646.8 0C618.7 0 562.3 0 506.2 0C450 0 394 0 337.8 0C281.7 0 225.3 0 169 0C112.7 0 56.3 0 28.2 0L0 0Z" fill="#2b4bcf"></path><path d="M0 80L28.2 81.7C56.3 83.3 112.7 86.7 169 85.2C225.3 83.7 281.7 77.3 337.8 72.3C394 67.3 450 63.7 506.2 65.5C562.3 67.3 618.7 74.7 646.8 78.3L675 82L675 0L646.8 0C618.7 0 562.3 0 506.2 0C450 0 394 0 337.8 0C281.7 0 225.3 0 169 0C112.7 0 56.3 0 28.2 0L0 0Z" fill="#590fb7"></path></svg>