<svg id="visual" viewBox="0 0 900 600" width="900" height="600" xmlns="http://www.w3.org/2000/svg" xmlns:xlink="http://www.w3.org/1999/xlink" version="1.1"><rect x="0" y="0" width="900" height="600" fill="#30BE96"></rect><defs><linearGradient id="grad1_0" x1="33.3%" y1="0%" x2="100%" y2="100%"><stop offset="20%" stop-color="#590fb7" stop-opacity="1"></stop><stop offset="80%" stop-color="#590fb7" stop-opacity="1"></stop></linearGradient></defs><defs><linearGradient id="grad1_1" x1="33.3%" y1="0%" x2="100%" y2="100%"><stop offset="20%" stop-color="#590fb7" stop-opacity="1"></stop><stop offset="80%" stop-color="#004bd9" stop-opacity="1"></stop></linearGradient></defs><defs><linearGradient id="grad1_2" x1="33.3%" y1="0%" x2="100%" y2="100%"><stop offset="20%" stop-color="#006ae8" stop-opacity="1"></stop><stop offset="80%" stop-color="#004bd9" stop-opacity="1"></stop></linearGradient></defs><defs><linearGradient id="grad1_3" x1="33.3%" y1="0%" x2="100%" y2="100%"><stop offset="20%" stop-color="#006ae8" stop-opacity="1"></stop><stop offset="80%" stop-color="#0080e4" stop-opacity="1"></stop></linearGradient></defs><defs><linearGradient id="grad1_4" x1="33.3%" y1="0%" x2="100%" y2="100%"><stop offset="20%" stop-color="#0093d4" stop-opacity="1"></stop><stop offset="80%" stop-color="#0080e4" stop-opacity="1"></stop></linearGradient></defs><defs><linearGradient id="grad1_5" x1="33.3%" y1="0%" x2="100%" y2="100%"><stop offset="20%" stop-color="#0093d4" stop-opacity="1"></stop><stop offset="80%" stop-color="#00a3bd" stop-opacity="1"></stop></linearGradient></defs><defs><linearGradient id="grad1_6" x1="33.3%" y1="0%" x2="100%" y2="100%"><stop offset="20%" stop-color="#00b2a7" stop-opacity="1"></stop><stop offset="80%" stop-color="#00a3bd" stop-opacity="1"></stop></linearGradient></defs><defs><linearGradient id="grad1_7" x1="33.3%" y1="0%" x2="100%" y2="100%"><stop offset="20%" stop-color="#00b2a7" stop-opacity="1"></stop><stop offset="80%" stop-color="#30be96" stop-opacity="1"></stop></linearGradient></defs><defs><linearGradient id="grad2_0" x1="0%" y1="0%" x2="66.7%" y2="100%"><stop offset="20%" stop-color="#590fb7" stop-opacity="1"></stop><stop offset="80%" stop-color="#590fb7" stop-opacity="1"></stop></linearGradient></defs><defs><linearGradient id="grad2_1" x1="0%" y1="0%" x2="66.7%" y2="100%"><stop offset="20%" stop-color="#004bd9" stop-opacity="1"></stop><stop offset="80%" stop-color="#590fb7" stop-opacity="1"></stop></linearGradient></defs><defs><linearGradient id="grad2_2" x1="0%" y1="0%" x2="66.7%" y2="100%"><stop offset="20%" stop-color="#004bd9" stop-opacity="1"></stop><stop offset="80%" stop-color="#006ae8" stop-opacity="1"></stop></linearGradient></defs><defs><linearGradient id="grad2_3" x1="0%" y1="0%" x2="66.7%" y2="100%"><stop offset="20%" stop-color="#0080e4" stop-opacity="1"></stop><stop offset="80%" stop-color="#006ae8" stop-opacity="1"></stop></linearGradient></defs><defs><linearGradient id="grad2_4" x1="0%" y1="0%" x2="66.7%" y2="100%"><stop offset="20%" stop-color="#0080e4" stop-opacity="1"></stop><stop offset="80%" stop-color="#0093d4" stop-opacity="1"></stop></linearGradient></defs><defs><linearGradient id="grad2_5" x1="0%" y1="0%" x2="66.7%" y2="100%"><stop offset="20%" stop-color="#00a3bd" stop-opacity="1"></stop><stop offset="80%" stop-color="#0093d4" stop-opacity="1"></stop></linearGradient></defs><defs><linearGradient id="grad2_6" x1="0%" y1="0%" x2="66.7%" y2="100%"><stop offset="20%" stop-color="#00a3bd" stop-opacity="1"></stop><stop offset="80%" stop-color="#00b2a7" stop-opacity="1"></stop></linearGradient></defs><defs><linearGradient id="grad2_7" x1="0%" y1="0%" x2="66.7%" y2="100%"><stop offset="20%" stop-color="#30be96" stop-opacity="1"></stop><stop offset="80%" stop-color="#00b2a7" stop-opacity="1"></stop></linearGradient></defs><g transform="translate(900, 0)"><path d="M0 513.8C-65.1 501.1 -130.2 488.5 -192.9 465.6C-255.6 442.8 -315.8 409.8 -363.3 363.3C-410.8 316.8 -445.5 256.8 -468.4 194C-491.4 131.2 -502.6 65.6 -513.8 0L0 0Z" fill="#00b89d"></path><path d="M0 449.6C-57 438.5 -113.9 427.4 -168.8 407.4C-223.6 387.5 -276.4 358.6 -317.9 317.9C-359.4 277.2 -389.8 224.7 -409.9 169.8C-429.9 114.8 -439.8 57.4 -449.6 0L0 0Z" fill="#00abb1"></path><path d="M0 385.3C-48.8 375.8 -97.6 366.4 -144.7 349.2C-191.7 332.1 -236.9 307.4 -272.5 272.5C-308.1 237.6 -334.1 192.6 -351.3 145.5C-368.5 98.4 -376.9 49.2 -385.3 0L0 0Z" fill="#009bc9"></path><path d="M0 321.1C-40.7 313.2 -81.4 305.3 -120.5 291C-159.7 276.8 -197.4 256.1 -227.1 227.1C-256.7 198 -278.4 160.5 -292.8 121.3C-307.1 82 -314.1 41 -321.1 0L0 0Z" fill="#008add"></path><path d="M0 256.9C-32.5 250.6 -65.1 244.2 -96.4 232.8C-127.8 221.4 -157.9 204.9 -181.7 181.7C-205.4 158.4 -222.7 128.4 -234.2 97C-245.7 65.6 -251.3 32.8 -256.9 0L0 0Z" fill="#0076e8"></path><path d="M0 192.7C-24.4 187.9 -48.8 183.2 -72.3 174.6C-95.8 166.1 -118.4 153.7 -136.2 136.2C-154 118.8 -167 96.3 -175.7 72.8C-184.3 49.2 -188.5 24.6 -192.7 0L0 0Z" fill="#005ce3"></path><path d="M0 128.4C-16.3 125.3 -32.5 122.1 -48.2 116.4C-63.9 110.7 -79 102.5 -90.8 90.8C-102.7 79.2 -111.4 64.2 -117.1 48.5C-122.8 32.8 -125.6 16.4 -128.4 0L0 0Z" fill="#1736cb"></path><path d="M0 64.2C-8.1 62.6 -16.3 61.1 -24.1 58.2C-31.9 55.4 -39.5 51.2 -45.4 45.4C-51.3 39.6 -55.7 32.1 -58.6 24.3C-61.4 16.4 -62.8 8.2 -64.2 0L0 0Z" fill="#590fb7"></path></g><g transform="translate(0, 600)"><path d="M0 -513.8C65.4 -498.1 130.7 -482.4 188.7 -455.5C246.6 -428.6 297.1 -390.5 347.2 -347.2C397.3 -303.9 447 -255.4 474.7 -196.6C502.4 -137.9 508.1 -68.9 513.8 0L0 0Z" fill="#00b89d"></path><path d="M0 -449.6C57.2 -435.8 114.4 -422.1 165.1 -398.5C215.8 -375 260 -341.7 303.8 -303.8C347.6 -265.9 391.1 -223.4 415.3 -172C439.6 -120.6 444.6 -60.3 449.6 0L0 0Z" fill="#00abb1"></path><path d="M0 -385.3C49 -373.6 98 -361.8 141.5 -341.6C184.9 -321.4 222.8 -292.9 260.4 -260.4C298 -227.9 335.2 -191.5 356 -147.5C376.8 -103.4 381.1 -51.7 385.3 0L0 0Z" fill="#009bc9"></path><path d="M0 -321.1C40.9 -311.3 81.7 -301.5 117.9 -284.7C154.1 -267.9 185.7 -244.1 217 -217C248.3 -189.9 279.4 -159.6 296.7 -122.9C314 -86.2 317.6 -43.1 321.1 0L0 0Z" fill="#008add"></path><path d="M0 -256.9C32.7 -249 65.4 -241.2 94.3 -227.7C123.3 -214.3 148.5 -195.2 173.6 -173.6C198.6 -151.9 223.5 -127.7 237.3 -98.3C251.2 -68.9 254 -34.5 256.9 0L0 0Z" fill="#0076e8"></path><path d="M0 -192.7C24.5 -186.8 49 -180.9 70.7 -170.8C92.5 -160.7 111.4 -146.4 130.2 -130.2C149 -114 167.6 -95.8 178 -73.7C188.4 -51.7 190.5 -25.9 192.7 0L0 0Z" fill="#005ce3"></path><path d="M0 -128.4C16.3 -124.5 32.7 -120.6 47.2 -113.9C61.6 -107.1 74.3 -97.6 86.8 -86.8C99.3 -76 111.7 -63.8 118.7 -49.2C125.6 -34.5 127 -17.2 128.4 0L0 0Z" fill="#1736cb"></path><path d="M0 -64.2C8.2 -62.3 16.3 -60.3 23.6 -56.9C30.8 -53.6 37.1 -48.8 43.4 -43.4C49.7 -38 55.9 -31.9 59.3 -24.6C62.8 -17.2 63.5 -8.6 64.2 0L0 0Z" fill="#590fb7"></path></g></svg>