<svg id="visual" viewBox="0 0 960 540" width="960" height="540" xmlns="http://www.w3.org/2000/svg" xmlns:xlink="http://www.w3.org/1999/xlink" version="1.1"><path d="M0 60L32 64.5C64 69 128 78 192 80.8C256 83.7 320 80.3 384 76.8C448 73.3 512 69.7 576 70.5C640 71.3 704 76.7 768 80.2C832 83.7 896 85.3 928 86.2L960 87L960 0L928 0C896 0 832 0 768 0C704 0 640 0 576 0C512 0 448 0 384 0C320 0 256 0 192 0C128 0 64 0 32 0L0 0Z" fill="#854dce"></path><path d="M0 114L32 118.5C64 123 128 132 192 129.3C256 126.7 320 112.3 384 108.8C448 105.3 512 112.7 576 118.2C640 123.7 704 127.3 768 126.3C832 125.3 896 119.7 928 116.8L960 114L960 85L928 84.2C896 83.3 832 81.7 768 78.2C704 74.7 640 69.3 576 68.5C512 67.7 448 71.3 384 74.8C320 78.3 256 81.7 192 78.8C128 76 64 67 32 62.5L0 58Z" fill="#793ec8"></path><path d="M0 158L32 158.8C64 159.7 128 161.3 192 157.7C256 154 320 145 384 144.2C448 143.3 512 150.7 576 160.5C640 170.3 704 182.7 768 179C832 175.3 896 155.7 928 145.8L960 136L960 112L928 114.8C896 117.7 832 123.3 768 124.3C704 125.3 640 121.7 576 116.2C512 110.7 448 103.3 384 106.8C320 110.3 256 124.7 192 127.3C128 130 64 121 32 116.5L0 112Z" fill="#6d2ec1"></path><path d="M0 212L32 213.7C64 215.3 128 218.7 192 219.5C256 220.3 320 218.7 384 214.2C448 209.7 512 202.3 576 210.5C640 218.7 704 242.3 768 237.8C832 233.3 896 200.7 928 184.3L960 168L960 134L928 143.8C896 153.7 832 173.3 768 177C704 180.7 640 168.3 576 158.5C512 148.7 448 141.3 384 142.2C320 143 256 152 192 155.7C128 159.3 64 157.7 32 156.8L0 156Z" fill="#601bba"></path><path d="M0 363L32 358.5C64 354 128 345 192 348.5C256 352 320 368 384 372.5C448 377 512 370 576 358.3C640 346.7 704 330.3 768 319.5C832 308.7 896 303.3 928 300.7L960 298L960 166L928 182.3C896 198.7 832 231.3 768 235.8C704 240.3 640 216.7 576 208.5C512 200.3 448 207.7 384 212.2C320 216.7 256 218.3 192 217.5C128 216.7 64 213.3 32 211.7L0 210Z" fill="#5510b0"></path><path d="M0 395L32 389.7C64 384.3 128 373.7 192 375.5C256 377.3 320 391.7 384 399.7C448 407.7 512 409.3 576 402.2C640 395 704 379 768 367.3C832 355.7 896 348.3 928 344.7L960 341L960 296L928 298.7C896 301.3 832 306.7 768 317.5C704 328.3 640 344.7 576 356.3C512 368 448 375 384 370.5C320 366 256 350 192 346.5C128 343 64 352 32 356.5L0 361Z" fill="#4d11a2"></path><path d="M0 417L32 416C64 415 128 413 192 422C256 431 320 451 384 456.5C448 462 512 453 576 444.8C640 436.7 704 429.3 768 422.2C832 415 896 408 928 404.5L960 401L960 339L928 342.7C896 346.3 832 353.7 768 365.3C704 377 640 393 576 400.2C512 407.3 448 405.7 384 397.7C320 389.7 256 375.3 192 373.5C128 371.7 64 382.3 32 387.7L0 393Z" fill="#451195"></path><path d="M0 541L32 541C64 541 128 541 192 541C256 541 320 541 384 541C448 541 512 541 576 541C640 541 704 541 768 541C832 541 896 541 928 541L960 541L960 399L928 402.5C896 406 832 413 768 420.2C704 427.3 640 434.7 576 442.8C512 451 448 460 384 454.5C320 449 256 429 192 420C128 411 64 413 32 414L0 415Z" fill="#3e1187"></path></svg>