<svg id="visual" viewBox="0 0 960 540" width="960" height="540" xmlns="http://www.w3.org/2000/svg" xmlns:xlink="http://www.w3.org/1999/xlink" version="1.1"><rect x="0" y="0" width="960" height="540" fill="#30BE96"></rect><path d="M157 540L170.8 517.5C184.7 495 212.3 450 215.7 405C219 360 198 315 182.7 270C167.3 225 157.7 180 155.3 135C153 90 158 45 160.5 22.5L163 0L960 0L960 22.5C960 45 960 90 960 135C960 180 960 225 960 270C960 315 960 360 960 405C960 450 960 495 960 517.5L960 540Z" fill="#30be96"></path><path d="M244 540L248 517.5C252 495 260 450 264 405C268 360 268 315 268.3 270C268.7 225 269.3 180 271.7 135C274 90 278 45 280 22.5L282 0L960 0L960 22.5C960 45 960 90 960 135C960 180 960 225 960 270C960 315 960 360 960 405C960 450 960 495 960 517.5L960 540Z" fill="#00b8ab"></path><path d="M326 540L322 517.5C318 495 310 450 311 405C312 360 322 315 320.2 270C318.3 225 304.7 180 311.2 135C317.7 90 344.3 45 357.7 22.5L371 0L960 0L960 22.5C960 45 960 90 960 135C960 180 960 225 960 270C960 315 960 360 960 405C960 450 960 495 960 517.5L960 540Z" fill="#00b1bf"></path><path d="M374 540L373 517.5C372 495 370 450 376.2 405C382.3 360 396.7 315 399.7 270C402.7 225 394.3 180 387.3 135C380.3 90 374.7 45 371.8 22.5L369 0L960 0L960 22.5C960 45 960 90 960 135C960 180 960 225 960 270C960 315 960 360 960 405C960 450 960 495 960 517.5L960 540Z" fill="#00a8d0"></path><path d="M475 540L464.7 517.5C454.3 495 433.7 450 426.5 405C419.3 360 425.7 315 432.2 270C438.7 225 445.3 180 450 135C454.7 90 457.3 45 458.7 22.5L460 0L960 0L960 22.5C960 45 960 90 960 135C960 180 960 225 960 270C960 315 960 360 960 405C960 450 960 495 960 517.5L960 540Z" fill="#009edb"></path><path d="M491 540L499.2 517.5C507.3 495 523.7 450 521.7 405C519.7 360 499.3 315 494 270C488.7 225 498.3 180 499.5 135C500.7 90 493.3 45 489.7 22.5L486 0L960 0L960 22.5C960 45 960 90 960 135C960 180 960 225 960 270C960 315 960 360 960 405C960 450 960 495 960 517.5L960 540Z" fill="#0091df"></path><path d="M604 540L594.8 517.5C585.7 495 567.3 450 566.5 405C565.7 360 582.3 315 582.2 270C582 225 565 180 561.8 135C558.7 90 569.3 45 574.7 22.5L580 0L960 0L960 22.5C960 45 960 90 960 135C960 180 960 225 960 270C960 315 960 360 960 405C960 450 960 495 960 517.5L960 540Z" fill="#0083dd"></path><path d="M637 540L631.7 517.5C626.3 495 615.7 450 620.3 405C625 360 645 315 647.8 270C650.7 225 636.3 180 626.3 135C616.3 90 610.7 45 607.8 22.5L605 0L960 0L960 22.5C960 45 960 90 960 135C960 180 960 225 960 270C960 315 960 360 960 405C960 450 960 495 960 517.5L960 540Z" fill="#0073dc"></path><path d="M701 540L698.7 517.5C696.3 495 691.7 450 689.3 405C687 360 687 315 685.2 270C683.3 225 679.7 180 686 135C692.3 90 708.7 45 716.8 22.5L725 0L960 0L960 22.5C960 45 960 90 960 135C960 180 960 225 960 270C960 315 960 360 960 405C960 450 960 495 960 517.5L960 540Z" fill="#0062d8"></path><path d="M778 540L777 517.5C776 495 774 450 768.5 405C763 360 754 315 756.3 270C758.7 225 772.3 180 774 135C775.7 90 765.3 45 760.2 22.5L755 0L960 0L960 22.5C960 45 960 90 960 135C960 180 960 225 960 270C960 315 960 360 960 405C960 450 960 495 960 517.5L960 540Z" fill="#264ed1"></path><path d="M820 540L821 517.5C822 495 824 450 826.5 405C829 360 832 315 831.3 270C830.7 225 826.3 180 823.3 135C820.3 90 818.7 45 817.8 22.5L817 0L960 0L960 22.5C960 45 960 90 960 135C960 180 960 225 960 270C960 315 960 360 960 405C960 450 960 495 960 517.5L960 540Z" fill="#4337c6"></path><path d="M880 540L883 517.5C886 495 892 450 892 405C892 360 886 315 883.5 270C881 225 882 180 886.2 135C890.3 90 897.7 45 901.3 22.5L905 0L960 0L960 22.5C960 45 960 90 960 135C960 180 960 225 960 270C960 315 960 360 960 405C960 450 960 495 960 517.5L960 540Z" fill="#590fb7"></path></svg>