<svg id="visual" viewBox="0 0 900 600" width="900" height="600" xmlns="http://www.w3.org/2000/svg" xmlns:xlink="http://www.w3.org/1999/xlink" version="1.1"><rect x="0" y="0" width="900" height="600" fill="#590FB7"></rect><defs><linearGradient id="grad1_0" x1="33.3%" y1="100%" x2="100%" y2="0%"><stop offset="20%" stop-color="#590fb7" stop-opacity="1"></stop><stop offset="80%" stop-color="#590fb7" stop-opacity="1"></stop></linearGradient></defs><defs><linearGradient id="grad2_0" x1="0%" y1="100%" x2="66.7%" y2="0%"><stop offset="20%" stop-color="#590fb7" stop-opacity="1"></stop><stop offset="80%" stop-color="#590fb7" stop-opacity="1"></stop></linearGradient></defs><g transform="translate(900, 600)"><path d="M-135.2 0C-119.5 -16.5 -103.7 -32.9 -94.4 -54.5C-85.1 -76.1 -82.3 -102.8 -67.6 -117.1C-52.9 -131.4 -26.5 -133.3 0 -135.2L0 0Z" fill="#30be96"></path></g><g transform="translate(0, 0)"><path d="M135.2 0C119.5 16.5 103.7 32.9 94.4 54.5C85.1 76.1 82.3 102.8 67.6 117.1C52.9 131.4 26.5 133.3 0 135.2L0 0Z" fill="#30be96"></path></g></svg>